{
  "accessors": [
    {
      "bufferView": 1,
      "componentType": 5126,
      "count": 1293,
      "max": [
        40.0,
        -28.0,
        29.0
      ],
      "min": [
        -13.0,
        -72.21299743652344,
        5.0
      ],
      "type": "VEC3"
    },
    {
      "bufferView": 1,
      "byteOffset": 15516,
      "componentType": 5126,
      "count": 1293,
      "max": [
        1.0,
        0.9999568462371826,
        0.9999812245368958
      ],
      "min": [
        -1.0,
        -0.9999574422836304,
        -0.999974250793457
      ],
      "type": "VEC3"
    },
    {
      "bufferView": 0,
      "componentType": 5125,
      "count": 5904,
      "type": "SCALAR"
    },
    {
      "bufferView": 1,
      "byteOffset": 31032,
      "componentType": 5126,
      "count": 305,
      "max": [
        34.0,
        -32.03099822998047,
        12.15060043334961
      ],
      "min": [
        28.0,
        -50.41600036621094,
        -5.502999782562256
      ],
      "type": "VEC3"
    },
    {
      "bufferView": 1,
      "byteOffset": 34692,
      "componentType": 5126,
      "count": 305,
      "max": [
        0.998966634273529,
        0.7094763517379761,
        0.7095348238945007
      ],
      "min": [
        -0.999996542930603,
        -0.7076517939567566,
        -0.7076795101165771
      ],
      "type": "VEC3"
    },
    {
      "bufferView": 0,
      "byteOffset": 23616,
      "componentType": 5125,
      "count": 909,
      "type": "SCALAR"
    },
    {
      "bufferView": 1,
      "byteOffset": 38352,
      "componentType": 5126,
      "count": 597,
      "max": [
        30.0,
        -48.29499816894531,
        24.902000427246094
      ],
      "min": [
        -18.0,
        -97.79199981689453,
        -24.594999313354492
      ],
      "type": "VEC3"
    },
    {
      "bufferView": 1,
      "byteOffset": 45516,
      "componentType": 5126,
      "count": 597,
      "max": [
        0.9974492788314819,
        0.7073096632957458,
        0.7072823643684387
      ],
      "min": [
        -0.9974493384361267,
        -0.9997202754020691,
        -0.9997203946113586
      ],
      "type": "VEC3"
    },
    {
      "bufferView": 0,
      "byteOffset": 27252,
      "componentType": 5125,
      "count": 2922,
      "type": "SCALAR"
    },
    {
      "bufferView": 1,
      "byteOffset": 52680,
      "componentType": 5126,
      "count": 1463,
      "max": [
        34.0,
        -33.992000579833984,
        22.451900482177734
      ],
      "min": [
        -10.781100273132324,
        -76.42420196533203,
        -5.348800182342529
      ],
      "type": "VEC3"
    },
    {
      "bufferView": 1,
      "byteOffset": 70236,
      "componentType": 5126,
      "count": 1463,
      "max": [
        0.9999999403953552,
        0.9999932646751404,
        0.9966833591461182
      ],
      "min": [
        -1.0,
        -0.9966817498207092,
        -0.9999766945838928
      ],
      "type": "VEC3"
    },
    {
      "bufferView": 0,
      "byteOffset": 38940,
      "componentType": 5125,
      "count": 6123,
      "type": "SCALAR"
    },
    {
      "bufferView": 1,
      "byteOffset": 87792,
      "componentType": 5126,
      "count": 1425,
      "max": [
        17.0,
        -35.56700134277344,
        15.322999954223633
      ],
      "min": [
        -4.0,
        -51.32339859008789,
        -0.5540000200271606
      ],
      "type": "VEC3"
    },
    {
      "bufferView": 1,
      "byteOffset": 104892,
      "componentType": 5126,
      "count": 1425,
      "max": [
        0.9999745488166809,
        0.999519944190979,
        0.8014014959335327
      ],
      "min": [
        -0.9998708367347717,
        -0.9326800107955933,
        -0.8210020661354065
      ],
      "type": "VEC3"
    },
    {
      "bufferView": 0,
      "byteOffset": 63432,
      "componentType": 5125,
      "count": 4110,
      "type": "SCALAR"
    },
    {
      "bufferView": 1,
      "byteOffset": 121992,
      "componentType": 5126,
      "count": 81,
      "max": [
        38.715999603271484,
        -45.58000183105469,
        -0.164000004529953
      ],
      "min": [
        24.284000396728516,
        -58.742000579833984,
        -14.331999778747559
      ],
      "type": "VEC3"
    },
    {
      "bufferView": 1,
      "byteOffset": 122964,
      "componentType": 5126,
      "count": 81,
      "max": [
        0.8438208103179932,
        0.9583669900894165,
        0.8638251423835754
      ],
      "min": [
        -0.8438860177993774,
        -0.958381175994873,
        -0.8637620210647583
      ],
      "type": "VEC3"
    },
    {
      "bufferView": 0,
      "byteOffset": 79872,
      "componentType": 5125,
      "count": 192,
      "type": "SCALAR"
    }
  ],
  "asset": {
    "extras": {
      "author": "TroyDCD (https://sketchfab.com/TroyDCD)",
      "license": "CC-BY-4.0 (http://creativecommons.org/licenses/by/4.0/)",
      "source": "https://sketchfab.com/3d-models/assignment-5-page-5-408a18d5cd8643448ae99f3f3bc8e32f",
      "title": "Assignment 5 Page 5"
    },
    "generator": "Sketchfab-11.94.0",
    "version": "2.0"
  },
  "bufferViews": [
    {
      "buffer": 0,
      "byteLength": 80640,
      "name": "floatBufferViews",
      "target": 34963
    },
    {
      "buffer": 0,
      "byteLength": 123936,
      "byteOffset": 80640,
      "byteStride": 12,
      "name": "floatBufferViews",
      "target": 34962
    }
  ],
  "buffers": [
    {
      "byteLength": 204576,
      "uri": "scene.bin"
    }
  ],
  "materials": [
    {
      "alphaMode": "BLEND",
      "doubleSided": true,
      "name": "color_-1028980494",
      "pbrMetallicRoughness": {
        "baseColorFactor": [
          0.670588,
          0.0,
          0.94902,
          0.239216
        ],
        "metallicFactor": 0.0
      }
    },
    {
      "doubleSided": true,
      "name": "color_11107152",
      "pbrMetallicRoughness": {
        "baseColorFactor": [
          0.662745,
          0.482353,
          0.313726,
          1.0
        ],
        "metallicFactor": 0.0
      }
    },
    {
      "doubleSided": true,
      "name": "color_12387860",
      "pbrMetallicRoughness": {
        "baseColorFactor": [
          0.741176,
          0.0235294,
          0.0784314,
          1.0
        ],
        "metallicFactor": 0.0
      }
    },
    {
      "doubleSided": true,
      "name": "color_16112312",
      "pbrMetallicRoughness": {
        "baseColorFactor": [
          0.960784,
          0.854902,
          0.721569,
          1.0
        ],
        "metallicFactor": 0.0
      }
    },
    {
      "doubleSided": true,
      "name": "color_16448250",
      "pbrMetallicRoughness": {
        "baseColorFactor": [
          0.980392,
          0.980392,
          0.980392,
          1.0
        ],
        "metallicFactor": 0.0
      }
    },
    {
      "doubleSided": true,
      "name": "color_16768282",
      "pbrMetallicRoughness": {
        "baseColorFactor": [
          1.0,
          0.866667,
          0.101961,
          1.0
        ],
        "metallicFactor": 0.0
      }
    }
  ],
  "meshes": [
    {
      "name": "Object_0",
      "primitives": [
        {
          "attributes": {
            "NORMAL": 1,
            "POSITION": 0
          },
          "indices": 2,
          "material": 0,
          "mode": 4
        }
      ]
    },
    {
      "name": "Object_1",
      "primitives": [
        {
          "attributes": {
            "NORMAL": 4,
            "POSITION": 3
          },
          "indices": 5,
          "material": 1,
          "mode": 4
        }
      ]
    },
    {
      "name": "Object_2",
      "primitives": [
        {
          "attributes": {
            "NORMAL": 7,
            "POSITION": 6
          },
          "indices": 8,
          "material": 2,
          "mode": 4
        }
      ]
    },
    {
      "name": "Object_3",
      "primitives": [
        {
          "attributes": {
            "NORMAL": 10,
            "POSITION": 9
          },
          "indices": 11,
          "material": 3,
          "mode": 4
        }
      ]
    },
    {
      "name": "Object_4",
      "primitives": [
        {
          "attributes": {
            "NORMAL": 13,
            "POSITION": 12
          },
          "indices": 14,
          "material": 4,
          "mode": 4
        }
      ]
    },
    {
      "name": "Object_5",
      "primitives": [
        {
          "attributes": {
            "NORMAL": 16,
            "POSITION": 15
          },
          "indices": 17,
          "material": 5,
          "mode": 4
        }
      ]
    }
  ],
  "nodes": [
    {
      "children": [
        1
      ],
      "matrix": [
        1.0,
        0.0,
        0.0,
        0.0,
        0.0,
        2.220446049250313e-16,
        -1.0,
        0.0,
        0.0,
        1.0,
        2.220446049250313e-16,
        0.0,
        0.0,
        0.0,
        0.0,
        1.0
      ],
      "name": "Sketchfab_model"
    },
    {
      "children": [
        2,
        3,
        4,
        5,
        6,
        7
      ],
      "name": "tinker.obj.cleaner.materialmerger.gles"
    },
    {
      "mesh": 0,
      "name": "Object_2"
    },
    {
      "mesh": 1,
      "name": "Object_3"
    },
    {
      "mesh": 2,
      "name": "Object_4"
    },
    {
      "mesh": 3,
      "name": "Object_5"
    },
    {
      "mesh": 4,
      "name": "Object_6"
    },
    {
      "mesh": 5,
      "name": "Object_7"
    }
  ],
  "scene": 0,
  "scenes": [
    {
      "name": "Sketchfab_Scene",
      "nodes": [
        0
      ]
    }
  ]
}
