{
  "accessors": [
    {
      "bufferView": 1,
      "componentType": 5126,
      "count": 280,
      "max": [
        34.0,
        -0.0,
        -16.0
      ],
      "min": [
        28.0,
        -62.0,
        -22.0
      ],
      "type": "VEC3"
    },
    {
      "bufferView": 1,
      "byteOffset": 3360,
      "componentType": 5126,
      "count": 280,
      "max": [
        0.9998706579208374,
        1.0,
        1.0
      ],
      "min": [
        -0.9995576739311218,
        -1.0,
        -0.9986059069633484
      ],
      "type": "VEC3"
    },
    {
      "bufferView": 0,
      "componentType": 5125,
      "count": 840,
      "type": "SCALAR"
    },
    {
      "bufferView": 1,
      "byteOffset": 6720,
      "componentType": 5126,
      "count": 3961,
      "max": [
        34.0,
        1.0,
        25.0
      ],
      "min": [
        -20.0,
        -107.0,
        -23.0
      ],
      "type": "VEC3"
    },
    {
      "bufferView": 1,
      "byteOffset": 54252,
      "componentType": 5126,
      "count": 3961,
      "max": [
        0.9999995827674866,
        1.0,
        1.0
      ],
      "min": [
        -0.9999896883964539,
        -1.0,
        -0.9999858140945435
      ],
      "type": "VEC3"
    },
    {
      "bufferView": 0,
      "byteOffset": 3360,
      "componentType": 5125,
      "count": 19338,
      "type": "SCALAR"
    },
    {
      "bufferView": 1,
      "byteOffset": 101784,
      "componentType": 5126,
      "count": 1941,
      "max": [
        34.0,
        -18.0,
        16.781200408935547
      ],
      "min": [
        -20.0,
        -61.0,
        -18.013099670410156
      ],
      "type": "VEC3"
    },
    {
      "bufferView": 1,
      "byteOffset": 125076,
      "componentType": 5126,
      "count": 1941,
      "max": [
        1.0,
        1.0,
        1.0
      ],
      "min": [
        -1.0,
        -0.9999973177909851,
        -1.0
      ],
      "type": "VEC3"
    },
    {
      "bufferView": 0,
      "byteOffset": 80712,
      "componentType": 5125,
      "count": 8544,
      "type": "SCALAR"
    },
    {
      "bufferView": 1,
      "byteOffset": 148368,
      "componentType": 5126,
      "count": 1272,
      "max": [
        17.0,
        -36.0,
        -13.54699993133545
      ],
      "min": [
        -4.0,
        -56.0,
        -16.0
      ],
      "type": "VEC3"
    },
    {
      "bufferView": 1,
      "byteOffset": 163632,
      "componentType": 5126,
      "count": 1272,
      "max": [
        0.9999297261238098,
        0.9999911189079285,
        1.0
      ],
      "min": [
        -0.9994369745254517,
        -0.9999998807907104,
        -1.0
      ],
      "type": "VEC3"
    },
    {
      "bufferView": 0,
      "byteOffset": 114888,
      "componentType": 5125,
      "count": 3690,
      "type": "SCALAR"
    },
    {
      "bufferView": 1,
      "byteOffset": 178896,
      "componentType": 5126,
      "count": 60,
      "max": [
        38.715999603271484,
        -62.0,
        -11.633999824523926
      ],
      "min": [
        24.284000396728516,
        -72.93399810791016,
        -26.365999221801758
      ],
      "type": "VEC3"
    },
    {
      "bufferView": 1,
      "byteOffset": 179616,
      "componentType": 5126,
      "count": 60,
      "max": [
        0.8438125848770142,
        1.0,
        0.8764581084251404
      ],
      "min": [
        -0.8438389897346497,
        -1.0,
        -0.8764585256576538
      ],
      "type": "VEC3"
    },
    {
      "bufferView": 0,
      "byteOffset": 129648,
      "componentType": 5125,
      "count": 108,
      "type": "SCALAR"
    }
  ],
  "asset": {
    "extras": {
      "author": "TroyDCD (https://sketchfab.com/TroyDCD)",
      "license": "CC-BY-4.0 (http://creativecommons.org/licenses/by/4.0/)",
      "source": "https://sketchfab.com/3d-models/assignment-5-model-page-3-7bb83cf4f3f746a9a8134523a666c721",
      "title": "Assignment 5 Model (Page 3)"
    },
    "generator": "Sketchfab-11.94.0",
    "version": "2.0"
  },
  "bufferViews": [
    {
      "buffer": 0,
      "byteLength": 130080,
      "name": "floatBufferViews",
      "target": 34963
    },
    {
      "buffer": 0,
      "byteLength": 180336,
      "byteOffset": 130080,
      "byteStride": 12,
      "name": "floatBufferViews",
      "target": 34962
    }
  ],
  "buffers": [
    {
      "byteLength": 310416,
      "uri": "scene.bin"
    }
  ],
  "materials": [
    {
      "doubleSided": true,
      "name": "color_11107152",
      "pbrMetallicRoughness": {
        "baseColorFactor": [
          0.662745,
          0.482353,
          0.313726,
          1.0
        ],
        "metallicFactor": 0.0
      }
    },
    {
      "doubleSided": true,
      "name": "color_12387860",
      "pbrMetallicRoughness": {
        "baseColorFactor": [
          0.741176,
          0.0235294,
          0.0784314,
          1.0
        ],
        "metallicFactor": 0.0
      }
    },
    {
      "doubleSided": true,
      "name": "color_16112312",
      "pbrMetallicRoughness": {
        "baseColorFactor": [
          0.960784,
          0.854902,
          0.721569,
          1.0
        ],
        "metallicFactor": 0.0
      }
    },
    {
      "doubleSided": true,
      "name": "color_16448250",
      "pbrMetallicRoughness": {
        "baseColorFactor": [
          0.980392,
          0.980392,
          0.980392,
          1.0
        ],
        "metallicFactor": 0.0
      }
    },
    {
      "doubleSided": true,
      "name": "color_16768282",
      "pbrMetallicRoughness": {
        "baseColorFactor": [
          1.0,
          0.866667,
          0.101961,
          1.0
        ],
        "metallicFactor": 0.0
      }
    }
  ],
  "meshes": [
    {
      "name": "Object_0",
      "primitives": [
        {
          "attributes": {
            "NORMAL": 1,
            "POSITION": 0
          },
          "indices": 2,
          "material": 0,
          "mode": 4
        }
      ]
    },
    {
      "name": "Object_1",
      "primitives": [
        {
          "attributes": {
            "NORMAL": 4,
            "POSITION": 3
          },
          "indices": 5,
          "material": 1,
          "mode": 4
        }
      ]
    },
    {
      "name": "Object_2",
      "primitives": [
        {
          "attributes": {
            "NORMAL": 7,
            "POSITION": 6
          },
          "indices": 8,
          "material": 2,
          "mode": 4
        }
      ]
    },
    {
      "name": "Object_3",
      "primitives": [
        {
          "attributes": {
            "NORMAL": 10,
            "POSITION": 9
          },
          "indices": 11,
          "material": 3,
          "mode": 4
        }
      ]
    },
    {
      "name": "Object_4",
      "primitives": [
        {
          "attributes": {
            "NORMAL": 13,
            "POSITION": 12
          },
          "indices": 14,
          "material": 4,
          "mode": 4
        }
      ]
    }
  ],
  "nodes": [
    {
      "children": [
        1
      ],
      "matrix": [
        1.0,
        0.0,
        0.0,
        0.0,
        0.0,
        2.220446049250313e-16,
        -1.0,
        0.0,
        0.0,
        1.0,
        2.220446049250313e-16,
        0.0,
        0.0,
        0.0,
        0.0,
        1.0
      ],
      "name": "Sketchfab_model"
    },
    {
      "children": [
        2,
        3,
        4,
        5,
        6
      ],
      "name": "tinker.obj.cleaner.materialmerger.gles"
    },
    {
      "mesh": 0,
      "name": "Object_2"
    },
    {
      "mesh": 1,
      "name": "Object_3"
    },
    {
      "mesh": 2,
      "name": "Object_4"
    },
    {
      "mesh": 3,
      "name": "Object_5"
    },
    {
      "mesh": 4,
      "name": "Object_6"
    }
  ],
  "scene": 0,
  "scenes": [
    {
      "name": "Sketchfab_Scene",
      "nodes": [
        0
      ]
    }
  ]
}
